<?xml version="1.0" encoding="UTF-8"?>
<svg xmlns="http://www.w3.org/2000/svg" version="1.1" viewBox="0 0 300 300">
  <defs>
    <style>
      .cls-1 {
        fill: #f9e062;
        stroke: #f9e062;
        stroke-miterlimit: 10;
      }

      .cls-2 {
        font-family: CalistoMT, 'Calisto MT';
        font-size: 55.82px;
        letter-spacing: .05em;
      }

      .cls-3 {
        fill: #add136;
      }

      .cls-4 {
        fill: #96b636;
      }

      .cls-5 {
        fill: #87a337;
      }
    </style>
  </defs>
  <!-- Generator: Adobe Illustrator 28.7.1, SVG Export Plug-In . SVG Version: 1.2.0 Build 142)  -->
  <g>
    <g id="_Слой_1" data-name="Слой_1">
      <text class="cls-2" transform="translate(7.74 227.56)"><tspan x="0" y="0">TravelEasy</tspan></text>
    </g>
    <g id="_Слой_2" data-name="Слой_2">
      <path class="cls-1" d="M86.26,113.37s16.5-8.9,43.57,3.89c0,0,20.95-19.84,68.04,6.3,0,0,7.6-22.99-7.42-44.87,0,0-10.57,5.75-17.8-1.48,0,0-6.12,5.56-11.31,0,0,0-2.78,4.45-7.79,1.11-5.01-3.34-1.3-8.34-1.3-8.34,0,0,1.3-2.97,5.56-2.41,0,0,.93-9.83,15.57-5.75,0,0-48.02-27.07-76.75,15.76,0,0,12.61-2.22,13.9,4.45,0,0,9.27-1.11,9.46,3.71,0,0,10.2-.74,10.38,5.01s-5.38,6.3-5.38,6.3l-5.01-.37s-.93,5.01-8.53,2.97c0,0-10.2,5.56-18.35-.19,0,0-2.78,3.34-6.86,2.41,0,0-1.48,8.34,0,11.49Z"/>
      <path class="cls-4" d="M72.89,134.42s24.66,42.53,72.67,40.87c48.02-1.67,70.08-42.27,70.08-42.27,0,0-42.64,42.08-73.97,27.81-31.33-14.28-31.15-20.74-68.78-26.4Z"/>
      <path class="cls-5" d="M129.79,132.01s23.09-15.68,50.38-1.07c27.29,14.61,35.3,2.18,35.3,2.18,0,0-8.93,21.14-38.35,17.98-29.43-3.15-47.32-19.1-47.32-19.1Z"/>
      <path class="cls-3" d="M72.52,134.87s27.54-20.58,58.99-3.15c31.45,17.43,43.17,17.43,43.17,17.43,0,0,15.45,4.63,41.31-16.13,0,0-34.99,57.1-83,27.81-48.01-29.29-60.48-25.96-60.48-25.96Z"/>
    </g>
  </g>
</svg>